<svg xmlns="http://www.w3.org/2000/svg" width="20" height="20" viewBox="0 0 20 20">
  <g id="explorer_svg" data-name="explorer svg" transform="translate(8598 1755)">
    <rect id="Rectangle_24956" data-name="Rectangle 24956" width="20" height="20" transform="translate(-8598 -1755)" fill="none"/>
    <g id="Group_80925" data-name="Group 80925" transform="translate(90.801 40.846)">
      <path id="Path_211989" data-name="Path 211989" d="M1116.6,987.028l-1.084,1.092c-.258-.258-.52-.522-.784-.785a.428.428,0,0,0-.7-.009c-1.127,1.125-2.256,2.247-3.376,3.378a1.96,1.96,0,0,0-.517,2.064,1.934,1.934,0,0,0,1.536,1.4,1.906,1.906,0,0,0,1.774-.484c.572-.539,1.119-1.1,1.676-1.66q.89-.887,1.778-1.777c.271-.272.27-.469,0-.743-.255-.254-.514-.506-.755-.743l1.084-1.083a6.942,6.942,0,0,0,6.4,1.545,6.839,6.839,0,0,0,4.077-2.842,7.032,7.032,0,0,0-10.3-9.381,7.14,7.14,0,0,0-1.756,2.185,7.027,7.027,0,0,0-.422,5.454A7.075,7.075,0,0,0,1116.6,987.028Zm10.679-4.622a5.383,5.383,0,1,1-5.389-5.384A5.385,5.385,0,0,1,1127.275,982.405Z" transform="translate(-9798.281 -2770.638)" fill="#fc6a57"/>
      <path id="Path_211991" data-name="Path 211991" d="M1162.643,1023.324a4.555,4.555,0,1,0,4.55,4.571A4.561,4.561,0,0,0,1162.643,1023.324Zm-3.435,4.39a3.433,3.433,0,0,1,3.34-3.264c.3-.007.489.14.5.389s-.177.416-.479.44a3.358,3.358,0,0,0-.665.1,2.59,2.59,0,0,0-1.873,2.428c-.01.3-.182.494-.435.482s-.395-.2-.389-.5C1159.209,1027.766,1159.208,1027.74,1159.208,1027.715Z" transform="translate(-9839.026 -2816.114)" fill="#fc6a57"/>
    </g>
  </g>
</svg>
