<svg xmlns="http://www.w3.org/2000/svg" width="20" height="20" viewBox="0 0 20 20">
  <g id="Group_80924" data-name="Group 80924" transform="translate(8590 1783)">
    <rect id="Rectangle_24956" data-name="Rectangle 24956" width="20" height="20" transform="translate(-8590 -1783)" fill="none"/>
    <g id="Group_80923" data-name="Group 80923" transform="translate(-364.208 109.8)">
      <path id="Path_211974" data-name="Path 211974" d="M1657.781,984.462l-1.3,1.3a.609.609,0,0,1,.168.088c.246.239.243.361,0,.609l-1.206,1.206c-.835.835-1.666,1.674-2.507,2.5a1.572,1.572,0,1,1-2.218-2.227c.725-.733,1.457-1.459,2.186-2.188l1.511-1.51c.263-.263.37-.262.637,0,.039.039.081.075.109.1l1.246-1.251a6.823,6.823,0,0,1-1.1-6.075,6.636,6.636,0,0,1,2.8-3.813,6.9,6.9,0,0,1,9.244,10,6.7,6.7,0,0,1-4.539,2.578A6.833,6.833,0,0,1,1657.781,984.462Zm-2.15-5.527a6.3,6.3,0,1,0,6.326-6.286A6.3,6.3,0,0,0,1655.631,978.934Zm.467,7.253-1.386-1.388c-.033.031-.079.071-.122.114l-1.484,1.483q-.98.98-1.96,1.961a.972.972,0,1,0,1.366,1.38q1.694-1.684,3.38-3.376C1655.958,986.3,1656.034,986.24,1656.1,986.187Zm1.132-2.114-.407-.429-1.164,1.161.41.426Z" transform="translate(-9875.323 -2864.147)" fill="#fc6a57"/>
      <path id="Path_211978" data-name="Path 211978" d="M1770.093,1001.713a5.7,5.7,0,1,1,5.67,5.69A5.7,5.7,0,0,1,1770.093,1001.713Zm.6-.025a5.1,5.1,0,1,0,5.121-5.082A5.1,5.1,0,0,0,1770.693,1001.688Z" transform="translate(-9989.185 -2886.905)" fill="#fc6a57"/>
      <path id="Path_211980" data-name="Path 211980" d="M1851.017,1071.239a.9.9,0,0,1,.275,1.534.751.751,0,0,0-.314.509,1.178,1.178,0,0,1-1.247.912,1.2,1.2,0,0,1-1.1-1.089.256.256,0,0,0-.155-.238.837.837,0,0,1-.449-.769.915.915,0,0,1,.59-.852c-.1-.183-.181-.374-.292-.547a1.8,1.8,0,1,1,3.025-.049C1851.233,1070.838,1851.132,1071.035,1851.017,1071.239Zm-.633-.049c.159-.3.291-.58.449-.843a1.21,1.21,0,0,0-.225-1.548,1.193,1.193,0,0,0-1.576,0,1.207,1.207,0,0,0-.223,1.548c.159.264.289.545.447.846Zm-.571,1.208c.287,0,.575,0,.862,0a.306.306,0,0,0,.345-.29c.006-.182-.13-.307-.346-.308q-.853,0-1.706,0a.3.3,0,0,0-.345.29c-.006.182.13.306.346.308C1849.25,1072.4,1849.531,1072.4,1849.813,1072.4Zm-.581.609a.6.6,0,0,0,.6.591.579.579,0,0,0,.568-.591Z" transform="translate(-10063.213 -2955.198)" fill="#fc6a57"/>
      <path id="Path_211981" data-name="Path 211981" d="M1828.109,1041.983l-.376.365-1.174-1.178.39-.353Z" transform="translate(-10042.821 -2929.472)" fill="#fc6a57"/>
      <path id="Path_211982" data-name="Path 211982" d="M1911.509,1040.468l.344.375-1.178,1.169-.357-.371Z" transform="translate(-10122.388 -2929.14)" fill="#fc6a57"/>
      <path id="Path_211983" data-name="Path 211983" d="M1816.436,1124.714l-1.154,1.154-.354-.4,1.158-1.146Z" transform="translate(-10031.774 -3008.798)" fill="#fc6a57"/>
      <path id="Path_211984" data-name="Path 211984" d="M1923.953,1125.67l-.362.343-1.181-1.18.364-.346Z" transform="translate(-10133.874 -3008.951)" fill="#fc6a57"/>
      <path id="Path_211985" data-name="Path 211985" d="M1878.128,1026.121h.577v1.479h-.577Z" transform="translate(-10091.81 -2915.511)" fill="#fc6a57"/>
      <path id="Path_211986" data-name="Path 211986" d="M1806.207,1092.613v-.577h1.476v.577Z" transform="translate(-10023.49 -2978.126)" fill="#fc6a57"/>
      <path id="Path_211987" data-name="Path 211987" d="M1933.58,1092.048v.576H1932.1v-.576Z" transform="translate(-10143.08 -2978.137)" fill="#fc6a57"/>
    </g>
  </g>
</svg>
